<svg width="94" height="36" viewBox="0 0 94 36" fill="none" xmlns="http://www.w3.org/2000/svg">
<path d="M32.7768 15.1676L20.131 12.6615C19.455 12.3812 18.7213 12.2246 17.9464 12.2246C14.7891 12.2246 12.2253 14.7884 12.2253 17.9457C12.2253 21.103 14.7891 23.6668 17.9464 23.6668C18.7213 23.6668 19.455 23.5102 20.131 23.2299L32.7768 20.7238C34.3183 20.7238 35.5631 19.479 35.5631 17.9375C35.5631 16.4124 34.3183 15.1676 32.7768 15.1676ZM21.6313 22.3313C21.689 22.2819 21.7385 22.2406 21.7962 22.1912C22.9503 21.1442 23.6758 19.6356 23.6758 17.9539C23.6758 16.297 22.9751 14.8131 21.8539 13.7662C21.7797 13.7002 21.7055 13.6343 21.6231 13.5683L31.4001 15.5386C31.3341 15.5798 31.2599 15.621 31.194 15.6622C30.4685 16.1651 29.9904 17.0059 29.9904 17.9539C29.9904 18.9267 30.4933 19.784 31.2434 20.2787C31.3176 20.3281 31.4001 20.3776 31.4825 20.4188L21.6313 22.3313Z" fill="#C63943"/>
<path d="M28.655 23.5103C26.5611 27.558 22.431 30.0723 17.8805 30.0723C11.1949 30.0723 5.75412 24.6315 5.75412 17.9459C5.75412 11.2603 11.1949 5.81948 17.8805 5.81948C22.1425 5.81948 26.1407 8.09473 28.317 11.7632C28.4901 12.0599 28.6467 12.3567 28.7951 12.6617L35.0191 13.9147C34.6151 12.1753 33.9474 10.5101 33.0241 8.96031C29.8668 3.6514 24.0633 0.345703 17.8805 0.345703C8.17775 0.345703 0.280334 8.24312 0.280334 17.9459C0.280334 27.6487 8.17775 35.5461 17.8805 35.5461C24.4919 35.5461 30.4851 31.8941 33.5187 26.0247C34.1782 24.7387 34.6811 23.3784 35.0108 21.9688L28.7869 23.2218C28.7456 23.3207 28.7044 23.4197 28.655 23.5103Z" fill="#C63943"/>
<path d="M48.6658 22.923C47.8843 22.923 47.1621 22.7944 46.4993 22.5372C45.8366 22.2701 45.2628 21.8992 44.7781 21.4243C44.2933 20.9495 43.9125 20.3906 43.6355 19.7476C43.3684 19.1046 43.2349 18.4022 43.2349 17.6405C43.2349 16.8788 43.3684 16.1764 43.6355 15.5334C43.9125 14.8904 44.2933 14.3315 44.7781 13.8567C45.2727 13.3818 45.8514 13.0158 46.5142 12.7586C47.177 12.4915 47.8991 12.358 48.6806 12.358C49.4324 12.358 50.1397 12.4866 50.8025 12.7438C51.4653 12.9911 52.0242 13.367 52.4793 13.8715L51.7819 14.5689C51.3565 14.1336 50.8866 13.822 50.3722 13.6341C49.8578 13.4362 49.3038 13.3373 48.7103 13.3373C48.0871 13.3373 47.5084 13.4461 46.9742 13.6638C46.44 13.8715 45.975 14.1732 45.5794 14.5689C45.1837 14.9547 44.8721 15.4098 44.6445 15.9341C44.4269 16.4485 44.3181 17.0173 44.3181 17.6405C44.3181 18.2637 44.4269 18.8375 44.6445 19.3618C44.8721 19.8762 45.1837 20.3312 45.5794 20.7269C45.975 21.1127 46.44 21.4144 46.9742 21.6321C47.5084 21.8398 48.0871 21.9437 48.7103 21.9437C49.3038 21.9437 49.8578 21.8447 50.3722 21.6469C50.8866 21.4491 51.3565 21.1325 51.7819 20.6972L52.4793 21.3946C52.0242 21.8992 51.4653 22.28 50.8025 22.5372C50.1397 22.7944 49.4275 22.923 48.6658 22.923ZM57.0807 22.834V18.976L57.333 19.6585L52.926 12.447H54.0982L57.9711 18.7831H57.3478L61.2207 12.447H62.3188L57.9117 19.6585L58.164 18.976V22.834H57.0807ZM68.0834 22.923C67.3019 22.923 66.5798 22.7944 65.917 22.5372C65.2542 22.2701 64.6804 21.8992 64.1957 21.4243C63.711 20.9495 63.3301 20.3906 63.0532 19.7476C62.7861 19.1046 62.6525 18.4022 62.6525 17.6405C62.6525 16.8788 62.7861 16.1764 63.0532 15.5334C63.3301 14.8904 63.711 14.3315 64.1957 13.8567C64.6903 13.3818 65.269 13.0158 65.9318 12.7586C66.5946 12.4915 67.3168 12.358 68.0983 12.358C68.8501 12.358 69.5574 12.4866 70.2202 12.7438C70.883 12.9911 71.4419 13.367 71.8969 13.8715L71.1995 14.5689C70.7742 14.1336 70.3043 13.822 69.7899 13.6341C69.2755 13.4362 68.7215 13.3373 68.1279 13.3373C67.5047 13.3373 66.926 13.4461 66.3918 13.6638C65.8576 13.8715 65.3927 14.1732 64.997 14.5689C64.6013 14.9547 64.2897 15.4098 64.0622 15.9341C63.8445 16.4485 63.7357 17.0173 63.7357 17.6405C63.7357 18.2637 63.8445 18.8375 64.0622 19.3618C64.2897 19.8762 64.6013 20.3312 64.997 20.7269C65.3927 21.1127 65.8576 21.4144 66.3918 21.6321C66.926 21.8398 67.5047 21.9437 68.1279 21.9437C68.7215 21.9437 69.2755 21.8447 69.7899 21.6469C70.3043 21.4491 70.7742 21.1325 71.1995 20.6972L71.8969 21.3946C71.4419 21.8992 70.883 22.28 70.2202 22.5372C69.5574 22.7944 68.8451 22.923 68.0834 22.923ZM74.2377 22.834V12.447H75.3358V21.8843H81.1525V22.834H74.2377ZM82.9757 22.834V12.447H86.8634C87.7438 12.447 88.5006 12.5904 89.1337 12.8773C89.7668 13.1543 90.2515 13.5599 90.5878 14.0941C90.9341 14.6184 91.1072 15.2564 91.1072 16.0082C91.1072 16.7403 90.9341 17.3734 90.5878 17.9076C90.2515 18.4319 89.7668 18.8375 89.1337 19.1243C88.5006 19.4013 87.7438 19.5398 86.8634 19.5398H83.584L84.0737 19.0353V22.834H82.9757ZM90.0685 22.834L87.3976 19.065H88.5846L91.2704 22.834H90.0685ZM84.0737 19.1243L83.584 18.605H86.8337C87.8724 18.605 88.6588 18.3775 89.193 17.9224C89.7371 17.4674 90.0091 16.8293 90.0091 16.0082C90.0091 15.1773 89.7371 14.5343 89.193 14.0792C88.6588 13.6242 87.8724 13.3967 86.8337 13.3967H83.584L84.0737 12.8773V19.1243Z" fill="#C63943"/>
</svg>
