<svg width="104" height="27" viewBox="0 0 104 27" fill="none" xmlns="http://www.w3.org/2000/svg">
<path d="M39.5833 18.0801C38.8798 18.0801 38.2298 17.9644 37.6331 17.7329C37.0365 17.4924 36.52 17.1585 36.0837 16.7311C35.6474 16.3036 35.3045 15.8005 35.0552 15.2217C34.8148 14.6429 34.6946 14.0107 34.6946 13.325C34.6946 12.6393 34.8148 12.0071 35.0552 11.4283C35.3045 10.8495 35.6474 10.3464 36.0837 9.91893C36.529 9.4915 37.0499 9.16202 37.6465 8.9305C38.2431 8.69007 38.8932 8.56986 39.5966 8.56986C40.2734 8.56986 40.9101 8.68562 41.5067 8.91714C42.1033 9.13976 42.6065 9.47814 43.0161 9.93228L42.3883 10.5601C42.0054 10.1683 41.5824 9.88776 41.1194 9.71857C40.6563 9.54048 40.1576 9.45143 39.6234 9.45143C39.0624 9.45143 38.5414 9.54938 38.0606 9.74528C37.5797 9.93229 37.1612 10.2039 36.805 10.5601C36.4488 10.9074 36.1683 11.317 35.9635 11.7889C35.7676 12.252 35.6696 12.764 35.6696 13.325C35.6696 13.886 35.7676 14.4025 35.9635 14.8744C36.1683 15.3375 36.4488 15.7471 36.805 16.1033C37.1612 16.4506 37.5797 16.7222 38.0606 16.9181C38.5414 17.1051 39.0624 17.1986 39.6234 17.1986C40.1576 17.1986 40.6563 17.1095 41.1194 16.9314C41.5824 16.7533 42.0054 16.4684 42.3883 16.0766L43.0161 16.7044C42.6065 17.1585 42.1033 17.5013 41.5067 17.7329C40.9101 17.9644 40.269 18.0801 39.5833 18.0801ZM44.9762 20.6581C44.6468 20.6581 44.3306 20.6046 44.0279 20.4978C43.734 20.3909 43.4802 20.2306 43.2665 20.0169L43.7073 19.309C43.8854 19.4782 44.0769 19.6073 44.2817 19.6964C44.4954 19.7943 44.7314 19.8433 44.9896 19.8433C45.3013 19.8433 45.5684 19.7542 45.791 19.5761C46.0225 19.407 46.2407 19.1042 46.4455 18.6679L46.8997 17.6394L47.0065 17.4924L49.8917 10.9875H50.8267L47.3137 18.8415C47.1178 19.2956 46.8997 19.6563 46.6592 19.9234C46.4277 20.1906 46.1739 20.3776 45.8979 20.4844C45.6218 20.6002 45.3146 20.6581 44.9762 20.6581ZM46.8462 18.2004L43.6138 10.9875H44.6022L47.4607 17.4256L46.8462 18.2004ZM54.8785 18.0668C54.1839 18.0668 53.5606 17.9154 53.0085 17.6126C52.4653 17.301 52.0378 16.878 51.7262 16.3437C51.4145 15.8005 51.2587 15.1816 51.2587 14.4871C51.2587 13.7836 51.4145 13.1647 51.7262 12.6304C52.0378 12.0961 52.4653 11.6776 53.0085 11.3749C53.5606 11.0721 54.1839 10.9207 54.8785 10.9207C55.4751 10.9207 56.0138 11.0365 56.4947 11.268C56.9755 11.4995 57.354 11.8468 57.63 12.3099L56.9221 12.7907C56.6817 12.4345 56.3834 12.1718 56.0272 12.0026C55.671 11.8335 55.2836 11.7489 54.8651 11.7489C54.3664 11.7489 53.9168 11.8646 53.516 12.0961C53.1153 12.3188 52.7992 12.6349 52.5677 13.0445C52.3362 13.4541 52.2204 13.935 52.2204 14.4871C52.2204 15.0392 52.3362 15.52 52.5677 15.9296C52.7992 16.3393 53.1153 16.6598 53.516 16.8914C53.9168 17.114 54.3664 17.2253 54.8651 17.2253C55.2836 17.2253 55.671 17.1407 56.0272 16.9715C56.3834 16.8023 56.6817 16.5441 56.9221 16.1968L57.63 16.6776C57.354 17.1318 56.9755 17.4791 56.4947 17.7195C56.0138 17.951 55.4751 18.0668 54.8785 18.0668ZM59.3887 18V8.089H60.3371V18H59.3887ZM62.9758 18V10.9875H63.8841V12.8976L63.7906 12.5636C63.9865 12.0294 64.316 11.6242 64.779 11.3481C65.2421 11.0632 65.8164 10.9207 66.5021 10.9207V11.8424C66.4665 11.8424 66.4309 11.8424 66.3952 11.8424C66.3596 11.8335 66.324 11.829 66.2884 11.829C65.5493 11.829 64.9705 12.0561 64.552 12.5102C64.1334 12.9555 63.9242 13.5921 63.9242 14.4203V18H62.9758ZM72.0331 18V8.65H75.8399C76.8372 8.65 77.7099 8.85036 78.4579 9.25107C79.2148 9.64288 79.8025 10.1905 80.221 10.894C80.6396 11.5975 80.8488 12.4078 80.8488 13.325C80.8488 14.2422 80.6396 15.0525 80.221 15.756C79.8025 16.4595 79.2148 17.0116 78.4579 17.4123C77.7099 17.8041 76.8372 18 75.8399 18H72.0331ZM73.0215 17.1451H75.7865C76.6146 17.1451 77.3314 16.9849 77.937 16.6643C78.5514 16.3348 79.0278 15.8851 79.3662 15.3152C79.7046 14.7364 79.8738 14.073 79.8738 13.325C79.8738 12.5681 79.7046 11.9047 79.3662 11.3348C79.0278 10.7649 78.5514 10.3196 77.937 9.99907C77.3314 9.66959 76.6146 9.50486 75.7865 9.50486H73.0215V17.1451ZM85.7265 18.0668C85.0497 18.0668 84.4397 17.9154 83.8965 17.6126C83.3623 17.301 82.9393 16.878 82.6276 16.3437C82.316 15.8005 82.1601 15.1816 82.1601 14.4871C82.1601 13.7836 82.316 13.1647 82.6276 12.6304C82.9393 12.0961 83.3623 11.6776 83.8965 11.3749C84.4308 11.0721 85.0408 10.9207 85.7265 10.9207C86.4211 10.9207 87.0355 11.0721 87.5698 11.3749C88.113 11.6776 88.5359 12.0961 88.8387 12.6304C89.1504 13.1647 89.3062 13.7836 89.3062 14.4871C89.3062 15.1816 89.1504 15.8005 88.8387 16.3437C88.5359 16.878 88.113 17.301 87.5698 17.6126C87.0266 17.9154 86.4121 18.0668 85.7265 18.0668ZM85.7265 17.2253C86.234 17.2253 86.6837 17.114 87.0756 16.8914C87.4674 16.6598 87.7746 16.3393 87.9972 15.9296C88.2287 15.5111 88.3445 15.0303 88.3445 14.4871C88.3445 13.935 88.2287 13.4541 87.9972 13.0445C87.7746 12.6349 87.4674 12.3188 87.0756 12.0961C86.6837 11.8646 86.2385 11.7489 85.7398 11.7489C85.2412 11.7489 84.7959 11.8646 84.4041 12.0961C84.0123 12.3188 83.7006 12.6349 83.4691 13.0445C83.2376 13.4541 83.1218 13.935 83.1218 14.4871C83.1218 15.0303 83.2376 15.5111 83.4691 15.9296C83.7006 16.3393 84.0123 16.6598 84.4041 16.8914C84.7959 17.114 85.2367 17.2253 85.7265 17.2253ZM94.1542 18.0668C93.4596 18.0668 92.8363 17.9154 92.2842 17.6126C91.741 17.301 91.3136 16.878 91.0019 16.3437C90.6903 15.8005 90.5344 15.1816 90.5344 14.4871C90.5344 13.7836 90.6903 13.1647 91.0019 12.6304C91.3136 12.0961 91.741 11.6776 92.2842 11.3749C92.8363 11.0721 93.4596 10.9207 94.1542 10.9207C94.7508 10.9207 95.2896 11.0365 95.7704 11.268C96.2513 11.4995 96.6297 11.8468 96.9058 12.3099L96.1979 12.7907C95.9574 12.4345 95.6591 12.1718 95.3029 12.0026C94.9467 11.8335 94.5594 11.7489 94.1409 11.7489C93.6422 11.7489 93.1925 11.8646 92.7918 12.0961C92.3911 12.3188 92.0749 12.6349 91.8434 13.0445C91.6119 13.4541 91.4961 13.935 91.4961 14.4871C91.4961 15.0392 91.6119 15.52 91.8434 15.9296C92.0749 16.3393 92.3911 16.6598 92.7918 16.8914C93.1925 17.114 93.6422 17.2253 94.1409 17.2253C94.5594 17.2253 94.9467 17.1407 95.3029 16.9715C95.6591 16.8023 95.9574 16.5441 96.1979 16.1968L96.9058 16.6776C96.6297 17.1318 96.2513 17.4791 95.7704 17.7195C95.2896 17.951 94.7508 18.0668 94.1542 18.0668ZM100.652 18.0668C100.073 18.0668 99.5257 17.9866 99.0092 17.8264C98.4927 17.6572 98.0876 17.4479 97.7937 17.1986L98.2211 16.4506C98.5061 16.6643 98.8712 16.8513 99.3164 17.0116C99.7617 17.163 100.229 17.2386 100.719 17.2386C101.387 17.2386 101.868 17.1362 102.162 16.9314C102.455 16.7177 102.602 16.4372 102.602 16.0899C102.602 15.8317 102.518 15.6313 102.349 15.4889C102.188 15.3375 101.975 15.2262 101.707 15.1549C101.44 15.0748 101.142 15.008 100.812 14.9546C100.483 14.9011 100.153 14.8388 99.824 14.7676C99.5034 14.6963 99.2096 14.5939 98.9424 14.4604C98.6753 14.3179 98.4571 14.1264 98.2879 13.886C98.1276 13.6456 98.0475 13.325 98.0475 12.9243C98.0475 12.5414 98.1544 12.1985 98.3681 11.8958C98.5818 11.593 98.8935 11.357 99.3031 11.1879C99.7216 11.0098 100.229 10.9207 100.826 10.9207C101.28 10.9207 101.734 10.983 102.188 11.1077C102.642 11.2235 103.016 11.3793 103.31 11.5752L102.896 12.3366C102.584 12.1229 102.251 11.9715 101.894 11.8824C101.538 11.7845 101.182 11.7355 100.826 11.7355C100.194 11.7355 99.726 11.8468 99.4233 12.0694C99.1294 12.2831 98.9825 12.5592 98.9825 12.8976C98.9825 13.1647 99.0626 13.374 99.2229 13.5254C99.3921 13.6767 99.6103 13.797 99.8774 13.886C100.153 13.9661 100.452 14.0329 100.772 14.0864C101.102 14.1398 101.427 14.2066 101.747 14.2867C102.077 14.358 102.375 14.4604 102.642 14.5939C102.918 14.7186 103.137 14.9011 103.297 15.1416C103.466 15.3731 103.551 15.6803 103.551 16.0632C103.551 16.4728 103.435 16.829 103.203 17.1318C102.981 17.4256 102.651 17.6572 102.215 17.8264C101.788 17.9866 101.267 18.0668 100.652 18.0668Z" fill="white"/>
<path d="M24.5825 11.3752L15.0982 9.49565C14.5912 9.28544 14.0409 9.16797 13.4598 9.16797C11.0918 9.16797 9.16895 11.0908 9.16895 13.4588C9.16895 15.8268 11.0918 17.7496 13.4598 17.7496C14.0409 17.7496 14.5912 17.6321 15.0982 17.4219L24.5825 15.5424C25.7387 15.5424 26.6723 14.6088 26.6723 13.4526C26.6723 12.3088 25.7387 11.3752 24.5825 11.3752ZM16.2234 16.748C16.2667 16.7109 16.3038 16.68 16.3471 16.6429C17.2127 15.8577 17.7568 14.7262 17.7568 13.465C17.7568 12.2222 17.2312 11.1093 16.3904 10.3241C16.3347 10.2747 16.2791 10.2252 16.2173 10.1758L23.55 11.6534C23.5005 11.6843 23.4449 11.7153 23.3954 11.7462C22.8513 12.1233 22.4927 12.754 22.4927 13.465C22.4927 14.1945 22.8699 14.8375 23.4325 15.2085C23.4882 15.2456 23.55 15.2827 23.6118 15.3136L16.2234 16.748Z" fill="white"/>
<path d="M21.4912 17.6323C19.9208 20.668 16.8232 22.5537 13.4103 22.5537C8.39614 22.5537 4.31554 18.4731 4.31554 13.4589C4.31554 8.44473 8.39614 4.36412 13.4103 4.36412C16.6068 4.36412 19.6054 6.07056 21.2377 8.82188C21.3675 9.04445 21.485 9.26703 21.5963 9.49579L26.2642 10.4356C25.9613 9.13101 25.4605 7.8821 24.768 6.71975C22.4 2.73807 18.0474 0.258789 13.4103 0.258789C6.13326 0.258789 0.210205 6.18185 0.210205 13.4589C0.210205 20.736 6.13326 26.6591 13.4103 26.6591C18.3689 26.6591 22.8637 23.9201 25.139 19.518C25.6336 18.5535 26.0108 17.5333 26.2581 16.4761L21.5901 17.4159C21.5592 17.4901 21.5283 17.5643 21.4912 17.6323Z" fill="white"/>
</svg>
